<svg width="170" height="499" viewBox="0 0 170 499" fill="none" xmlns="http://www.w3.org/2000/svg">
<rect x="47.5985" y="41.3837" width="74.7699" height="9.34624" rx="4.67312" fill="white"/>
<rect x="47.5985" y="0.882812" width="74.7699" height="34.2695" rx="17.1348" fill="white"/>
<path d="M0.868164 116.151C0.868164 90.3417 21.7905 69.4194 47.5995 69.4194H122.369C148.178 69.4194 169.1 90.3417 169.1 116.151V147.305C169.1 159.349 159.337 169.113 147.293 169.113H22.6761C10.6319 169.113 0.868164 159.349 0.868164 147.305V116.151Z" fill="white"/>
<path d="M169.102 451.729C169.102 477.538 148.18 498.46 122.371 498.46H47.601C21.792 498.46 0.86972 477.538 0.86972 451.729V420.575C0.86972 408.531 10.6335 398.767 22.6777 398.767H147.294C159.338 398.767 169.102 408.531 169.102 420.575V451.729Z" fill="white"/>
<path d="M0.868164 209.616C0.868164 197.572 10.6319 187.808 22.6761 187.808H147.293C159.337 187.808 169.1 197.572 169.1 209.616V359.156C169.1 371.2 159.337 380.964 147.293 380.964H22.6761C10.6319 380.964 0.868164 371.2 0.868164 359.156V209.616Z" fill="white"/>
</svg>
