<svg width="2787" height="721" viewBox="0 0 2787 721" fill="none" xmlns="http://www.w3.org/2000/svg">
<g clip-path="url(#clip0_234_3)">
<path d="M341.817 651.999L217.564 448.757H141.237V651.999H1.00864V21.8593H229.989C364.005 21.8593 456.307 106.174 456.307 240.189C456.307 328.941 414.593 391.955 346.254 424.794L490.033 651.999H341.817ZM141.237 328.941H215.789C272.59 328.941 314.303 307.641 314.303 240.189C314.303 172.738 272.59 150.55 215.789 150.55H141.237V328.941ZM672.106 660.874C544.303 660.874 428.925 573.897 428.925 422.131C428.925 265.927 545.191 181.613 664.118 181.613C781.271 181.613 918.837 263.265 889.549 474.495H561.166C579.804 524.196 625.955 549.047 687.194 549.047C728.02 549.047 764.408 539.284 798.134 513.546L860.26 578.335C822.097 626.261 756.421 660.874 672.106 660.874ZM558.503 375.98H768.846C759.083 322.729 712.044 296.991 665.893 296.991C619.742 296.991 573.591 320.954 558.503 375.98Z" fill="white"/>
<rect x="1866.6" y="195.384" width="74.7699" height="9.34624" rx="4.67312" fill="white"/>
<rect x="1866.6" y="154.883" width="74.7699" height="34.2695" rx="17.1348" fill="white"/>
<path d="M1819.87 270.151C1819.87 244.342 1840.79 223.419 1866.6 223.419H1941.37C1967.18 223.419 1988.1 244.342 1988.1 270.151V301.305C1988.1 313.349 1978.34 323.113 1966.29 323.113H1841.68C1829.63 323.113 1819.87 313.349 1819.87 301.305V270.151Z" fill="white"/>
<path d="M1988.1 605.729C1988.1 631.538 1967.18 652.46 1941.37 652.46H1866.6C1840.79 652.46 1819.87 631.538 1819.87 605.729V574.575C1819.87 562.531 1829.63 552.767 1841.68 552.767H1966.29C1978.34 552.767 1988.1 562.531 1988.1 574.575V605.729Z" fill="white"/>
<path d="M1819.87 363.616C1819.87 351.572 1829.63 341.808 1841.68 341.808H1966.29C1978.34 341.808 1988.1 351.572 1988.1 363.616V513.156C1988.1 525.2 1978.34 534.964 1966.29 534.964H1841.68C1829.63 534.964 1819.87 525.2 1819.87 513.156V363.616Z" fill="white"/>
<g clip-path="url(#clip1_234_3)">
<path d="M1212.35 27.1348L1088.1 -176.107H1011.77V27.1348H871.545V-603.005H1100.53C1234.54 -603.005 1326.84 -518.69 1326.84 -384.675C1326.84 -295.923 1285.13 -232.909 1216.79 -200.07L1360.57 27.1348H1212.35ZM1011.77 -295.923H1086.33C1143.13 -295.923 1184.84 -317.223 1184.84 -384.675C1184.84 -452.126 1143.13 -474.314 1086.33 -474.314H1011.77V-295.923ZM1542.64 36.01C1414.84 36.01 1299.46 -50.967 1299.46 -202.733C1299.46 -358.937 1415.73 -443.251 1534.65 -443.251C1651.81 -443.251 1789.37 -361.599 1760.08 -150.369H1431.7C1450.34 -100.668 1496.49 -75.8176 1557.73 -75.8176C1598.56 -75.8176 1634.94 -85.5803 1668.67 -111.318L1730.8 -46.5294C1692.63 1.39673 1626.96 36.01 1542.64 36.01ZM1429.04 -248.884H1639.38C1629.62 -302.135 1582.58 -327.873 1536.43 -327.873C1490.28 -327.873 1444.13 -303.91 1429.04 -248.884ZM1033.96 657.135L840.482 195.624H980.71L1097.86 495.606L1215.02 195.624H1355.24L1161.76 657.135H1033.96ZM1540.95 666.01C1420.25 666.01 1295.99 583.471 1295.99 426.379C1295.99 269.288 1420.25 186.749 1540.95 186.749C1661.65 186.749 1785.91 269.288 1785.91 426.379C1785.91 583.471 1661.65 666.01 1540.95 666.01ZM1431.79 426.379C1431.79 497.381 1481.49 541.757 1540.95 541.757C1600.41 541.757 1650.12 497.381 1650.12 426.379C1650.12 355.378 1600.41 311.002 1540.95 311.002C1481.49 311.002 1431.79 355.378 1431.79 426.379ZM2019.32 657.135V195.624H2156.89V320.764C2171.98 246.213 2216.35 186.749 2299.78 186.749C2310.43 186.749 2321.08 187.636 2332.62 191.186V321.652C2321.97 319.877 2312.21 318.989 2300.67 318.989C2209.25 318.989 2156.89 380.228 2156.89 467.205V657.135H2019.32ZM2516.54 666.01C2411.81 666.01 2296.43 587.021 2296.43 426.379C2296.43 265.738 2411.81 186.749 2516.54 186.749C2598.19 186.749 2646.11 231.125 2653.22 247.988H2655.88V195.624H2793.44V657.135H2655.88V604.771H2653.22C2646.11 621.634 2598.19 666.01 2516.54 666.01ZM2432.22 426.379C2432.22 500.931 2486.36 543.532 2544.94 543.532C2605.29 543.532 2659.43 501.819 2659.43 426.379C2659.43 350.94 2605.29 309.227 2544.94 309.227C2486.36 309.227 2432.22 351.828 2432.22 426.379Z" fill="white"/>
</g>
</g>
<defs>
<clipPath id="clip0_234_3">
<rect width="2787" height="721" fill="white"/>
</clipPath>
<clipPath id="clip1_234_3">
<rect width="2045.5" height="566.117" fill="white" transform="translate(819.15 154.883)"/>
</clipPath>
</defs>
</svg>
